<svg id="Capa_1" enable-background="new 0 0 512 512" height="70" viewBox="0 0 512 512" width="70" xmlns="http://www.w3.org/2000/svg"><g><g><path d="m361 256-81.084 124.062-23.916 131.938 256-256-84.211-30z" fill="#97de3d"/></g><g><path d="m0 256 256 256-31.387-150.084-73.613-105.916-75-30z" fill="#b2ea63"/></g><path d="m256 226-105 30 105 256 105-256z" fill="#97de3d"/><path d="m256 226v286l105-256z" fill="#59c36a"/><g><path d="m444.35 151h-188.35l16.183 46.183 88.817 58.817 67.839-47.668z" fill="#59c36a"/></g><g><path d="m256 151h-188.32l11.66 52.5 71.66 52.5 72.79-42.79z" fill="#97de3d"/></g><g><path d="m512 256-67.65-105-83.35 105z" fill="#00a66c"/></g><g><path d="m67.68 151-67.68 105h151z" fill="#59c36a"/></g><g><path d="m96.151 46.004h29.997v70.289h-29.997z" fill="#fed843" transform="matrix(.707 -.707 .707 .707 -24.826 102.362)"/></g><g><path d="m365.706 66.151h70.289v29.997h-70.289z" fill="#fabe2c" transform="matrix(.707 -.707 .707 .707 60.026 307.213)"/></g><path d="m256 0h-15v91h15 15v-91z" fill="#fed843"/><path d="m256 0h15v91h-15z" fill="#fabe2c"/><path d="m256 151-105 105h105 105z" fill="#b2ea63"/><path d="m256 151v105h105z" fill="#97de3d"/></g></svg>